<svg version="1.1" xmlns="http://www.w3.org/2000/svg" xmlns:xlink="http://www.w3.org/1999/xlink" width="1090.603515625" height="436"><defs/><g><text fill="#eeeeee" stroke="none" font-family="Arial" font-size="24px" font-style="normal" font-weight="normal" text-decoration="none" x="0" y="0">UNREGISTERED</text><text fill="#eeeeee" stroke="none" font-family="Arial" font-size="24px" font-style="normal" font-weight="normal" text-decoration="none" x="0" y="30">UNREGISTERED</text><text fill="#eeeeee" stroke="none" font-family="Arial" font-size="24px" font-style="normal" font-weight="normal" text-decoration="none" x="0" y="60">UNREGISTERED</text><text fill="#eeeeee" stroke="none" font-family="Arial" font-size="24px" font-style="normal" font-weight="normal" text-decoration="none" x="0" y="90">UNREGISTERED</text><text fill="#eeeeee" stroke="none" font-family="Arial" font-size="24px" font-style="normal" font-weight="normal" text-decoration="none" x="0" y="120">UNREGISTERED</text><text fill="#eeeeee" stroke="none" font-family="Arial" font-size="24px" font-style="normal" font-weight="normal" text-decoration="none" x="0" y="150">UNREGISTERED</text><text fill="#eeeeee" stroke="none" font-family="Arial" font-size="24px" font-style="normal" font-weight="normal" text-decoration="none" x="0" y="180">UNREGISTERED</text><text fill="#eeeeee" stroke="none" font-family="Arial" font-size="24px" font-style="normal" font-weight="normal" text-decoration="none" x="0" y="210">UNREGISTERED</text><text fill="#eeeeee" stroke="none" font-family="Arial" font-size="24px" font-style="normal" font-weight="normal" text-decoration="none" x="0" y="240">UNREGISTERED</text><text fill="#eeeeee" stroke="none" font-family="Arial" font-size="24px" font-style="normal" font-weight="normal" text-decoration="none" x="0" y="270">UNREGISTERED</text><text fill="#eeeeee" stroke="none" font-family="Arial" font-size="24px" font-style="normal" font-weight="normal" text-decoration="none" x="0" y="300">UNREGISTERED</text><text fill="#eeeeee" stroke="none" font-family="Arial" font-size="24px" font-style="normal" font-weight="normal" text-decoration="none" x="0" y="330">UNREGISTERED</text><text fill="#eeeeee" stroke="none" font-family="Arial" font-size="24px" font-style="normal" font-weight="normal" text-decoration="none" x="0" y="360">UNREGISTERED</text><text fill="#eeeeee" stroke="none" font-family="Arial" font-size="24px" font-style="normal" font-weight="normal" text-decoration="none" x="0" y="390">UNREGISTERED</text><text fill="#eeeeee" stroke="none" font-family="Arial" font-size="24px" font-style="normal" font-weight="normal" text-decoration="none" x="0" y="420">UNREGISTERED</text><text fill="#eeeeee" stroke="none" font-family="Arial" font-size="24px" font-style="normal" font-weight="normal" text-decoration="none" x="200" y="0">UNREGISTERED</text><text fill="#eeeeee" stroke="none" font-family="Arial" font-size="24px" font-style="normal" font-weight="normal" text-decoration="none" x="200" y="30">UNREGISTERED</text><text fill="#eeeeee" stroke="none" font-family="Arial" font-size="24px" font-style="normal" font-weight="normal" text-decoration="none" x="200" y="60">UNREGISTERED</text><text fill="#eeeeee" stroke="none" font-family="Arial" font-size="24px" font-style="normal" font-weight="normal" text-decoration="none" x="200" y="90">UNREGISTERED</text><text fill="#eeeeee" stroke="none" font-family="Arial" font-size="24px" font-style="normal" font-weight="normal" text-decoration="none" x="200" y="120">UNREGISTERED</text><text fill="#eeeeee" stroke="none" font-family="Arial" font-size="24px" font-style="normal" font-weight="normal" text-decoration="none" x="200" y="150">UNREGISTERED</text><text fill="#eeeeee" stroke="none" font-family="Arial" font-size="24px" font-style="normal" font-weight="normal" text-decoration="none" x="200" y="180">UNREGISTERED</text><text fill="#eeeeee" stroke="none" font-family="Arial" font-size="24px" font-style="normal" font-weight="normal" text-decoration="none" x="200" y="210">UNREGISTERED</text><text fill="#eeeeee" stroke="none" font-family="Arial" font-size="24px" font-style="normal" font-weight="normal" text-decoration="none" x="200" y="240">UNREGISTERED</text><text fill="#eeeeee" stroke="none" font-family="Arial" font-size="24px" font-style="normal" font-weight="normal" text-decoration="none" x="200" y="270">UNREGISTERED</text><text fill="#eeeeee" stroke="none" font-family="Arial" font-size="24px" font-style="normal" font-weight="normal" text-decoration="none" x="200" y="300">UNREGISTERED</text><text fill="#eeeeee" stroke="none" font-family="Arial" font-size="24px" font-style="normal" font-weight="normal" text-decoration="none" x="200" y="330">UNREGISTERED</text><text fill="#eeeeee" stroke="none" font-family="Arial" font-size="24px" font-style="normal" font-weight="normal" text-decoration="none" x="200" y="360">UNREGISTERED</text><text fill="#eeeeee" stroke="none" font-family="Arial" font-size="24px" font-style="normal" font-weight="normal" text-decoration="none" x="200" y="390">UNREGISTERED</text><text fill="#eeeeee" stroke="none" font-family="Arial" font-size="24px" font-style="normal" font-weight="normal" text-decoration="none" x="200" y="420">UNREGISTERED</text><text fill="#eeeeee" stroke="none" font-family="Arial" font-size="24px" font-style="normal" font-weight="normal" text-decoration="none" x="400" y="0">UNREGISTERED</text><text fill="#eeeeee" stroke="none" font-family="Arial" font-size="24px" font-style="normal" font-weight="normal" text-decoration="none" x="400" y="30">UNREGISTERED</text><text fill="#eeeeee" stroke="none" font-family="Arial" font-size="24px" font-style="normal" font-weight="normal" text-decoration="none" x="400" y="60">UNREGISTERED</text><text fill="#eeeeee" stroke="none" font-family="Arial" font-size="24px" font-style="normal" font-weight="normal" text-decoration="none" x="400" y="90">UNREGISTERED</text><text fill="#eeeeee" stroke="none" font-family="Arial" font-size="24px" font-style="normal" font-weight="normal" text-decoration="none" x="400" y="120">UNREGISTERED</text><text fill="#eeeeee" stroke="none" font-family="Arial" font-size="24px" font-style="normal" font-weight="normal" text-decoration="none" x="400" y="150">UNREGISTERED</text><text fill="#eeeeee" stroke="none" font-family="Arial" font-size="24px" font-style="normal" font-weight="normal" text-decoration="none" x="400" y="180">UNREGISTERED</text><text fill="#eeeeee" stroke="none" font-family="Arial" font-size="24px" font-style="normal" font-weight="normal" text-decoration="none" x="400" y="210">UNREGISTERED</text><text fill="#eeeeee" stroke="none" font-family="Arial" font-size="24px" font-style="normal" font-weight="normal" text-decoration="none" x="400" y="240">UNREGISTERED</text><text fill="#eeeeee" stroke="none" font-family="Arial" font-size="24px" font-style="normal" font-weight="normal" text-decoration="none" x="400" y="270">UNREGISTERED</text><text fill="#eeeeee" stroke="none" font-family="Arial" font-size="24px" font-style="normal" font-weight="normal" text-decoration="none" x="400" y="300">UNREGISTERED</text><text fill="#eeeeee" stroke="none" font-family="Arial" font-size="24px" font-style="normal" font-weight="normal" text-decoration="none" x="400" y="330">UNREGISTERED</text><text fill="#eeeeee" stroke="none" font-family="Arial" font-size="24px" font-style="normal" font-weight="normal" text-decoration="none" x="400" y="360">UNREGISTERED</text><text fill="#eeeeee" stroke="none" font-family="Arial" font-size="24px" font-style="normal" font-weight="normal" text-decoration="none" x="400" y="390">UNREGISTERED</text><text fill="#eeeeee" stroke="none" font-family="Arial" font-size="24px" font-style="normal" font-weight="normal" text-decoration="none" x="400" y="420">UNREGISTERED</text><text fill="#eeeeee" stroke="none" font-family="Arial" font-size="24px" font-style="normal" font-weight="normal" text-decoration="none" x="600" y="0">UNREGISTERED</text><text fill="#eeeeee" stroke="none" font-family="Arial" font-size="24px" font-style="normal" font-weight="normal" text-decoration="none" x="600" y="30">UNREGISTERED</text><text fill="#eeeeee" stroke="none" font-family="Arial" font-size="24px" font-style="normal" font-weight="normal" text-decoration="none" x="600" y="60">UNREGISTERED</text><text fill="#eeeeee" stroke="none" font-family="Arial" font-size="24px" font-style="normal" font-weight="normal" text-decoration="none" x="600" y="90">UNREGISTERED</text><text fill="#eeeeee" stroke="none" font-family="Arial" font-size="24px" font-style="normal" font-weight="normal" text-decoration="none" x="600" y="120">UNREGISTERED</text><text fill="#eeeeee" stroke="none" font-family="Arial" font-size="24px" font-style="normal" font-weight="normal" text-decoration="none" x="600" y="150">UNREGISTERED</text><text fill="#eeeeee" stroke="none" font-family="Arial" font-size="24px" font-style="normal" font-weight="normal" text-decoration="none" x="600" y="180">UNREGISTERED</text><text fill="#eeeeee" stroke="none" font-family="Arial" font-size="24px" font-style="normal" font-weight="normal" text-decoration="none" x="600" y="210">UNREGISTERED</text><text fill="#eeeeee" stroke="none" font-family="Arial" font-size="24px" font-style="normal" font-weight="normal" text-decoration="none" x="600" y="240">UNREGISTERED</text><text fill="#eeeeee" stroke="none" font-family="Arial" font-size="24px" font-style="normal" font-weight="normal" text-decoration="none" x="600" y="270">UNREGISTERED</text><text fill="#eeeeee" stroke="none" font-family="Arial" font-size="24px" font-style="normal" font-weight="normal" text-decoration="none" x="600" y="300">UNREGISTERED</text><text fill="#eeeeee" stroke="none" font-family="Arial" font-size="24px" font-style="normal" font-weight="normal" text-decoration="none" x="600" y="330">UNREGISTERED</text><text fill="#eeeeee" stroke="none" font-family="Arial" font-size="24px" font-style="normal" font-weight="normal" text-decoration="none" x="600" y="360">UNREGISTERED</text><text fill="#eeeeee" stroke="none" font-family="Arial" font-size="24px" font-style="normal" font-weight="normal" text-decoration="none" x="600" y="390">UNREGISTERED</text><text fill="#eeeeee" stroke="none" font-family="Arial" font-size="24px" font-style="normal" font-weight="normal" text-decoration="none" x="600" y="420">UNREGISTERED</text><text fill="#eeeeee" stroke="none" font-family="Arial" font-size="24px" font-style="normal" font-weight="normal" text-decoration="none" x="800" y="0">UNREGISTERED</text><text fill="#eeeeee" stroke="none" font-family="Arial" font-size="24px" font-style="normal" font-weight="normal" text-decoration="none" x="800" y="30">UNREGISTERED</text><text fill="#eeeeee" stroke="none" font-family="Arial" font-size="24px" font-style="normal" font-weight="normal" text-decoration="none" x="800" y="60">UNREGISTERED</text><text fill="#eeeeee" stroke="none" font-family="Arial" font-size="24px" font-style="normal" font-weight="normal" text-decoration="none" x="800" y="90">UNREGISTERED</text><text fill="#eeeeee" stroke="none" font-family="Arial" font-size="24px" font-style="normal" font-weight="normal" text-decoration="none" x="800" y="120">UNREGISTERED</text><text fill="#eeeeee" stroke="none" font-family="Arial" font-size="24px" font-style="normal" font-weight="normal" text-decoration="none" x="800" y="150">UNREGISTERED</text><text fill="#eeeeee" stroke="none" font-family="Arial" font-size="24px" font-style="normal" font-weight="normal" text-decoration="none" x="800" y="180">UNREGISTERED</text><text fill="#eeeeee" stroke="none" font-family="Arial" font-size="24px" font-style="normal" font-weight="normal" text-decoration="none" x="800" y="210">UNREGISTERED</text><text fill="#eeeeee" stroke="none" font-family="Arial" font-size="24px" font-style="normal" font-weight="normal" text-decoration="none" x="800" y="240">UNREGISTERED</text><text fill="#eeeeee" stroke="none" font-family="Arial" font-size="24px" font-style="normal" font-weight="normal" text-decoration="none" x="800" y="270">UNREGISTERED</text><text fill="#eeeeee" stroke="none" font-family="Arial" font-size="24px" font-style="normal" font-weight="normal" text-decoration="none" x="800" y="300">UNREGISTERED</text><text fill="#eeeeee" stroke="none" font-family="Arial" font-size="24px" font-style="normal" font-weight="normal" text-decoration="none" x="800" y="330">UNREGISTERED</text><text fill="#eeeeee" stroke="none" font-family="Arial" font-size="24px" font-style="normal" font-weight="normal" text-decoration="none" x="800" y="360">UNREGISTERED</text><text fill="#eeeeee" stroke="none" font-family="Arial" font-size="24px" font-style="normal" font-weight="normal" text-decoration="none" x="800" y="390">UNREGISTERED</text><text fill="#eeeeee" stroke="none" font-family="Arial" font-size="24px" font-style="normal" font-weight="normal" text-decoration="none" x="800" y="420">UNREGISTERED</text><text fill="#eeeeee" stroke="none" font-family="Arial" font-size="24px" font-style="normal" font-weight="normal" text-decoration="none" x="1000" y="0">UNREGISTERED</text><text fill="#eeeeee" stroke="none" font-family="Arial" font-size="24px" font-style="normal" font-weight="normal" text-decoration="none" x="1000" y="30">UNREGISTERED</text><text fill="#eeeeee" stroke="none" font-family="Arial" font-size="24px" font-style="normal" font-weight="normal" text-decoration="none" x="1000" y="60">UNREGISTERED</text><text fill="#eeeeee" stroke="none" font-family="Arial" font-size="24px" font-style="normal" font-weight="normal" text-decoration="none" x="1000" y="90">UNREGISTERED</text><text fill="#eeeeee" stroke="none" font-family="Arial" font-size="24px" font-style="normal" font-weight="normal" text-decoration="none" x="1000" y="120">UNREGISTERED</text><text fill="#eeeeee" stroke="none" font-family="Arial" font-size="24px" font-style="normal" font-weight="normal" text-decoration="none" x="1000" y="150">UNREGISTERED</text><text fill="#eeeeee" stroke="none" font-family="Arial" font-size="24px" font-style="normal" font-weight="normal" text-decoration="none" x="1000" y="180">UNREGISTERED</text><text fill="#eeeeee" stroke="none" font-family="Arial" font-size="24px" font-style="normal" font-weight="normal" text-decoration="none" x="1000" y="210">UNREGISTERED</text><text fill="#eeeeee" stroke="none" font-family="Arial" font-size="24px" font-style="normal" font-weight="normal" text-decoration="none" x="1000" y="240">UNREGISTERED</text><text fill="#eeeeee" stroke="none" font-family="Arial" font-size="24px" font-style="normal" font-weight="normal" text-decoration="none" x="1000" y="270">UNREGISTERED</text><text fill="#eeeeee" stroke="none" font-family="Arial" font-size="24px" font-style="normal" font-weight="normal" text-decoration="none" x="1000" y="300">UNREGISTERED</text><text fill="#eeeeee" stroke="none" font-family="Arial" font-size="24px" font-style="normal" font-weight="normal" text-decoration="none" x="1000" y="330">UNREGISTERED</text><text fill="#eeeeee" stroke="none" font-family="Arial" font-size="24px" font-style="normal" font-weight="normal" text-decoration="none" x="1000" y="360">UNREGISTERED</text><text fill="#eeeeee" stroke="none" font-family="Arial" font-size="24px" font-style="normal" font-weight="normal" text-decoration="none" x="1000" y="390">UNREGISTERED</text><text fill="#eeeeee" stroke="none" font-family="Arial" font-size="24px" font-style="normal" font-weight="normal" text-decoration="none" x="1000" y="420">UNREGISTERED</text><g transform="translate(-214,-150) scale(1,1)"><rect fill="#C0C0C0" stroke="none" x="351" y="167" width="744" height="416" opacity="0.2"/></g><g transform="translate(-214,-150) scale(1,1)"><rect fill="#ffffff" stroke="none" x="344" y="160" width="744" height="416"/></g><g transform="translate(-214,-150) scale(1,1)"><path fill="none" stroke="#000000" d="M 344 160 L 1088 160 L 1088 576 L 344 576 L 344 160 Z Z" stroke-miterlimit="10"/></g><g transform="translate(-214,-150) scale(1,1)"><g><path fill="none" stroke="none"/><text fill="#000000" stroke="none" font-family="Arial" font-size="13px" font-style="normal" font-weight="bold" text-decoration="none" x="631.941162109375" y="179.5">SatisfyWorkoutPlanRequests</text></g></g><g transform="translate(-214,-150) scale(1,1)"><path fill="#C0C0C0" stroke="none" d="M 591 435 C 591 419.5360256 651.2176944 407 725.5 407 C 799.7823056 407 860 419.5360256 860 435 C 860 450.4639744 799.7823056 463 725.5 463 C 651.2176944 463 591 450.4639744 591 435 Z" opacity="0.2"/></g><g transform="translate(-214,-150) scale(1,1)"><path fill="#00d600" stroke="none" d="M 584 428 C 584 412.5360256 644.2176944 400 718.5 400 C 792.7823056 400 853 412.5360256 853 428 C 853 443.4639744 792.7823056 456 718.5 456 C 644.2176944 456 584 443.4639744 584 428 Z"/></g><g transform="translate(-214,-150) scale(1,1)"><path fill="none" stroke="#000000" d="M 584 428 C 584 412.5360256 644.2176944 400 718.5 400 C 792.7823056 400 853 412.5360256 853 428 C 853 443.4639744 792.7823056 456 718.5 456 C 644.2176944 456 584 443.4639744 584 428 Z" stroke-miterlimit="10"/></g><g transform="translate(-214,-150) scale(1,1)"><g><path fill="none" stroke="none"/><text fill="#000000" stroke="none" font-family="Arial" font-size="13px" font-style="normal" font-weight="bold" text-decoration="none" x="634.441162109375" y="435">SatisfyWorkoutPlanRequests</text></g></g><g transform="translate(-214,-150) scale(1,1)"><path fill="#ffffff" stroke="none" d="M 241.49797336647728 401.68 C 241.49797336647728 396.886167936 245.3838156914227 393 250.17724609375 393 C 254.9706764960773 393 258.85651882102275 396.886167936 258.85651882102275 401.68 C 258.85651882102275 406.473832064 254.9706764960773 410.36 250.17724609375 410.36 C 245.3838156914227 410.36 241.49797336647728 406.473832064 241.49797336647728 401.68 Z"/></g><g transform="translate(-214,-150) scale(1,1)"><path fill="none" stroke="#000000" d="M 241.49797336647728 401.68 C 241.49797336647728 396.886167936 245.3838156914227 393 250.17724609375 393 C 254.9706764960773 393 258.85651882102275 396.886167936 258.85651882102275 401.68 C 258.85651882102275 406.473832064 254.9706764960773 410.36 250.17724609375 410.36 C 245.3838156914227 410.36 241.49797336647728 406.473832064 241.49797336647728 401.68 Z" stroke-miterlimit="10"/></g><g transform="translate(-214,-150) scale(1,1)"><path fill="none" stroke="#000000" d="M 250.17724609375 410.36 L 250.17724609375 427.64" stroke-miterlimit="10"/></g><g transform="translate(-214,-150) scale(1,1)"><path fill="none" stroke="#000000" d="M 240.98742791193183 416.84 L 259.36706427556817 416.84" stroke-miterlimit="10"/></g><g transform="translate(-214,-150) scale(1,1)"><path fill="none" stroke="#000000" d="M 250.17724609375 427.64 L 237.41360973011365 445" stroke-miterlimit="10"/></g><g transform="translate(-214,-150) scale(1,1)"><path fill="none" stroke="#000000" d="M 250.17724609375 427.64 L 262.94088245738635 445" stroke-miterlimit="10"/></g><g transform="translate(-214,-150) scale(1,1)"><g><path fill="none" stroke="none"/><text fill="#000000" stroke="none" font-family="Arial" font-size="13px" font-style="normal" font-weight="bold" text-decoration="none" x="229.829833984375" y="465.5">Trainer</text></g></g><g transform="translate(-214,-150) scale(1,1)"><path fill="none" stroke="#000000" d="M 277 431 L 583 429" stroke-miterlimit="10"/></g><g transform="translate(-214,-150) scale(1,1)"><path fill="none" stroke="#000000" d="M 572.8650548034101 433.2758491393078 L 583 429 L 572.810029602802 424.8569934462725" stroke-miterlimit="10"/></g><g transform="translate(-214,-150) scale(1,1)"><path fill="#ffffff" stroke="none" d="M 1210.6224850852273 393.68 C 1210.6224850852273 388.886167936 1214.5083274101728 385 1219.3017578125 385 C 1224.0951882148272 385 1227.9810305397727 388.886167936 1227.9810305397727 393.68 C 1227.9810305397727 398.473832064 1224.0951882148272 402.36 1219.3017578125 402.36 C 1214.5083274101728 402.36 1210.6224850852273 398.473832064 1210.6224850852273 393.68 Z"/></g><g transform="translate(-214,-150) scale(1,1)"><path fill="none" stroke="#000000" d="M 1210.6224850852273 393.68 C 1210.6224850852273 388.886167936 1214.5083274101728 385 1219.3017578125 385 C 1224.0951882148272 385 1227.9810305397727 388.886167936 1227.9810305397727 393.68 C 1227.9810305397727 398.473832064 1224.0951882148272 402.36 1219.3017578125 402.36 C 1214.5083274101728 402.36 1210.6224850852273 398.473832064 1210.6224850852273 393.68 Z" stroke-miterlimit="10"/></g><g transform="translate(-214,-150) scale(1,1)"><path fill="none" stroke="#000000" d="M 1219.3017578125 402.36 L 1219.3017578125 419.64" stroke-miterlimit="10"/></g><g transform="translate(-214,-150) scale(1,1)"><path fill="none" stroke="#000000" d="M 1210.1119396306817 408.84 L 1228.4915759943183 408.84" stroke-miterlimit="10"/></g><g transform="translate(-214,-150) scale(1,1)"><path fill="none" stroke="#000000" d="M 1219.3017578125 419.64 L 1206.5381214488636 437" stroke-miterlimit="10"/></g><g transform="translate(-214,-150) scale(1,1)"><path fill="none" stroke="#000000" d="M 1219.3017578125 419.64 L 1232.0653941761364 437" stroke-miterlimit="10"/></g><g transform="translate(-214,-150) scale(1,1)"><g><path fill="none" stroke="none"/><text fill="#000000" stroke="none" font-family="Arial" font-size="13px" font-style="normal" font-weight="bold" text-decoration="none" x="1153.552734375" y="457.5">EmailSystemBoundary</text></g></g><g transform="translate(-214,-150) scale(1,1)"><path fill="none" stroke="#000000" d="M 854 427 L 1143 424" stroke-miterlimit="10"/></g><g transform="translate(-214,-150) scale(1,1)"><path fill="none" stroke="#000000" d="M 1132.8815677114687 428.3147801823971 L 1143 424 L 1132.7941775875001 419.8961982401049" stroke-miterlimit="10"/></g><g transform="translate(-214,-150) scale(1,1)"><path fill="#C0C0C0" stroke="none" d="M 527 248 C 527 238.6111584 555.6537728 231 591 231 C 626.3462272 231 655 238.6111584 655 248 C 655 257.3888416 626.3462272 265 591 265 C 555.6537728 265 527 257.3888416 527 248 Z" opacity="0.2"/></g><g transform="translate(-214,-150) scale(1,1)"><path fill="#b6ff6d" stroke="none" d="M 520 241 C 520 231.6111584 548.6537728 224 584 224 C 619.3462272 224 648 231.6111584 648 241 C 648 250.3888416 619.3462272 258 584 258 C 548.6537728 258 520 250.3888416 520 241 Z"/></g><g transform="translate(-214,-150) scale(1,1)"><path fill="none" stroke="#000000" d="M 520 241 C 520 231.6111584 548.6537728 224 584 224 C 619.3462272 224 648 231.6111584 648 241 C 648 250.3888416 619.3462272 258 584 258 C 548.6537728 258 520 250.3888416 520 241 Z" stroke-miterlimit="10"/></g><g transform="translate(-214,-150) scale(1,1)"><g><path fill="none" stroke="none"/><text fill="#000000" stroke="none" font-family="Arial" font-size="13px" font-style="normal" font-weight="bold" text-decoration="none" x="568.095947265625" y="248">Login</text></g></g><g transform="translate(-214,-150) scale(1,1)"><path fill="#C0C0C0" stroke="none" d="M 759 248 C 759 238.6111584 794.5933583999999 231 838.5 231 C 882.4066416000001 231 918 238.6111584 918 248 C 918 257.3888416 882.4066416000001 265 838.5 265 C 794.5933583999999 265 759 257.3888416 759 248 Z" opacity="0.2"/></g><g transform="translate(-214,-150) scale(1,1)"><path fill="#b6ff6d" stroke="none" d="M 752 241 C 752 231.6111584 787.5933583999999 224 831.5 224 C 875.4066416000001 224 911 231.6111584 911 241 C 911 250.3888416 875.4066416000001 258 831.5 258 C 787.5933583999999 258 752 250.3888416 752 241 Z"/></g><g transform="translate(-214,-150) scale(1,1)"><path fill="none" stroke="#000000" d="M 752 241 C 752 231.6111584 787.5933583999999 224 831.5 224 C 875.4066416000001 224 911 231.6111584 911 241 C 911 250.3888416 875.4066416000001 258 831.5 258 C 787.5933583999999 258 752 250.3888416 752 241 Z" stroke-miterlimit="10"/></g><g transform="translate(-214,-150) scale(1,1)"><g><path fill="none" stroke="none"/><text fill="#000000" stroke="none" font-family="Arial" font-size="13px" font-style="normal" font-weight="bold" text-decoration="none" x="784.16552734375" y="248">SendNotification</text></g></g><g transform="translate(-214,-150) scale(1,1)"><path fill="none" stroke="#000000" d="M 697 399 L 597 259" stroke-miterlimit="10" stroke-dasharray="3"/></g><g transform="translate(-214,-150) scale(1,1)"><path fill="none" stroke="#000000" d="M 606.3323602733092 264.8229761917047 L 597 259 L 599.4815092818907 269.7164411855751" stroke-miterlimit="10"/></g><g transform="translate(-214,-150) scale(1,1)"><g><path fill="none" stroke="none"/><text fill="#000000" stroke="none" font-family="Arial" font-size="13px" font-style="normal" font-weight="normal" text-decoration="none" x="594.5" y="352.5">«include»</text></g></g><g transform="translate(-214,-150) scale(1,1)"><path fill="none" stroke="#000000" d="M 736 399 L 820 259" stroke-miterlimit="10" stroke-dasharray="3"/></g><g transform="translate(-214,-150) scale(1,1)"><path fill="none" stroke="#000000" d="M 818.3809786184074 269.8802008145965 L 820 259 L 811.1617152255172 265.5486427788624" stroke-miterlimit="10"/></g><g transform="translate(-214,-150) scale(1,1)"><g><path fill="none" stroke="none"/><text fill="#000000" stroke="none" font-family="Arial" font-size="13px" font-style="normal" font-weight="normal" text-decoration="none" x="724.5" y="319.5">«include»</text></g></g></g></svg>